<svg width="16" height="14" viewBox="0 0 16 14" fill="none" xmlns="http://www.w3.org/2000/svg">
<path d="M11.5966 0.000684373C10.8962 0.029817 10.2113 0.202189 9.58986 0.50566C8.96846 0.80913 8.42577 1.23632 8 1.75714C7.57423 1.23632 7.03154 0.80913 6.41015 0.50566C5.78875 0.202189 5.10376 0.029817 4.40343 0.000684373C3.80741 -0.00957141 3.21556 0.095538 2.66505 0.309411C2.11454 0.523284 1.61727 0.8413 1.20447 1.24348C0.791669 1.64567 0.472254 2.12334 0.266288 2.64648C0.0603212 3.16963 -0.027747 3.72695 0.00761433 4.28344C0.00761433 7.78888 5.1707 12.266 8 14C10.8293 12.251 15.9924 7.77393 15.9924 4.28344C16.0277 3.72695 15.9397 3.16963 15.7337 2.64648C15.5277 2.12334 15.2083 1.64567 14.7955 1.24348C14.3827 0.8413 13.8855 0.523284 13.335 0.309411C12.7844 0.095538 12.1926 -0.00957141 11.5966 0.000684373Z" fill="#CC0000"/>
</svg>
