<svg width="20" height="20" viewBox="0 0 20 20" fill="none" xmlns="http://www.w3.org/2000/svg">
<path d="M20 18.5591L14.5205 13.0898C15.6337 11.6717 16.2377 9.9205 16.2354 8.11771C16.2354 6.51218 15.7593 4.9427 14.8673 3.60775C13.9753 2.2728 12.7075 1.23234 11.2242 0.617927C9.7409 0.00351721 8.1087 -0.15724 6.53402 0.155983C4.95934 0.469207 3.51291 1.24234 2.37762 2.37762C1.24234 3.51291 0.469207 4.95934 0.155983 6.53402C-0.15724 8.1087 0.00351721 9.7409 0.617927 11.2242C1.23234 12.7075 2.2728 13.9753 3.60775 14.8673C4.9427 15.7593 6.51218 16.2354 8.11771 16.2354C9.9205 16.2377 11.6717 15.6337 13.0898 14.5205L18.5591 20L20 18.5591ZM8.11771 14.206C6.91356 14.206 5.73646 13.8489 4.73524 13.1799C3.73403 12.5109 2.95368 11.5601 2.49287 10.4476C2.03207 9.33511 1.9115 8.11096 2.14641 6.92994C2.38133 5.74893 2.96118 4.66411 3.81265 3.81265C4.66411 2.96118 5.74893 2.38133 6.92994 2.14641C8.11096 1.9115 9.33511 2.03207 10.4476 2.49287C11.5601 2.95368 12.5109 3.73403 13.1799 4.73524C13.8489 5.73646 14.206 6.91356 14.206 8.11771C14.206 9.73242 13.5645 11.281 12.4228 12.4228C11.281 13.5645 9.73242 14.206 8.11771 14.206Z" fill="black"/>
</svg>
